<svg width="24" height="24" viewBox="0 0 24 24" fill="none" xmlns="http://www.w3.org/2000/svg">
<path d="M17.1135 0H6.88646C3.08317 0 0 3.08318 0 6.88647V17.1135C0 20.9168 3.08317 24 6.88646 24H17.1135C20.9168 24 24 20.9168 24 17.1135V6.88647C24 3.08318 20.9168 0 17.1135 0Z" fill="black"/>
<path fill-rule="evenodd" clip-rule="evenodd" d="M15.1379 7.00159C14.5942 6.87014 14.0376 6.79931 13.4783 6.79041C11.6983 6.79041 10.989 7.63547 10.989 9.14394V10.2451H9.87402V12.0254H10.989V17.4415H13.1615V12.0254H14.7457L14.8965 10.2451H13.1615V9.3853C13.1615 8.90259 13.2067 8.60089 13.9006 8.60089C14.225 8.60859 14.5481 8.64393 14.8664 8.70649L15.1379 7.00159Z" fill="white"/>
</svg>
