<?xml version="1.0" encoding="UTF-8"?>
<!DOCTYPE svg PUBLIC "-//W3C//DTD SVG 1.1//EN" "http://www.w3.org/Graphics/SVG/1.1/DTD/svg11.dtd">
<!-- Creator: CorelDRAW X7 -->
<svg xmlns="http://www.w3.org/2000/svg" xml:space="preserve" width="17.1483mm" height="20.0688mm" version="1.1" style="shape-rendering:geometricPrecision; text-rendering:geometricPrecision; image-rendering:optimizeQuality; fill-rule:evenodd; clip-rule:evenodd"
viewBox="0 0 243 285"
 xmlns:xlink="http://www.w3.org/1999/xlink">
 <defs>
  <style type="text/css">
   <![CDATA[
    .fil15 {fill:#FEFEFE}
    .fil17 {fill:#00B5FE}
    .fil6 {fill:#FF8E06}
    .fil7 {fill:#FF9D06}
    .fil8 {fill:#FFAC06}
    .fil9 {fill:#FFBB06}
    .fil10 {fill:#FFCA06}
    .fil11 {fill:#FFD906}
    .fil12 {fill:#FFE806}
    .fil13 {fill:#FFF706}
    .fil16 {fill:#FEFEFE;fill-rule:nonzero}
    .fil14 {fill:#00B5FE;fill-rule:nonzero}
    .fil2 {fill:url(#id12)}
    .fil3 {fill:url(#id13)}
    .fil5 {fill:url(#id14)}
    .fil0 {fill:url(#id15)}
    .fil4 {fill:url(#id16)}
    .fil1 {fill:url(#id17)}
   ]]>
  </style>
   <mask id="id0">
  <linearGradient id="id1" gradientUnits="userSpaceOnUse" x1="225.515" y1="256.305" x2="176.718" y2="207.869">
   <stop offset="0" style="stop-opacity:1; stop-color:white"/>
   <stop offset="1" style="stop-opacity:0; stop-color:white"/>
  </linearGradient>
    <rect style="fill:url(#id1)" x="160" y="180" width="82.4307" height="103.387"/>
   </mask>
   <mask id="id2">
  <linearGradient id="id3" gradientUnits="userSpaceOnUse" x1="197.304" y1="222.974" x2="204.929" y2="241.2">
   <stop offset="0" style="stop-opacity:1; stop-color:white"/>
   <stop offset="1" style="stop-opacity:0; stop-color:white"/>
  </linearGradient>
    <rect style="fill:url(#id3)" x="160" y="180" width="82.4307" height="103.387"/>
   </mask>
   <mask id="id4">
  <linearGradient id="id5" gradientUnits="userSpaceOnUse" x1="12.1035" y1="270.081" x2="12.1035" y2="194.093">
   <stop offset="0" style="stop-opacity:1; stop-color:white"/>
   <stop offset="1" style="stop-opacity:0; stop-color:white"/>
  </linearGradient>
    <rect style="fill:url(#id5)" x="-1" y="178" width="27.0459" height="108.378"/>
   </mask>
   <mask id="id6">
  <linearGradient id="id7" gradientUnits="userSpaceOnUse" x1="107.976" y1="221.156" x2="76.9786" y2="243.018">
   <stop offset="0" style="stop-opacity:1; stop-color:white"/>
   <stop offset="1" style="stop-opacity:0; stop-color:white"/>
  </linearGradient>
    <rect style="fill:url(#id7)" x="49" y="180" width="86.6535" height="103.387"/>
   </mask>
   <mask id="id8">
  <linearGradient id="id9" gradientUnits="userSpaceOnUse" x1="85.7635" y1="244.503" x2="99.1913" y2="219.671">
   <stop offset="0" style="stop-opacity:1; stop-color:white"/>
   <stop offset="1" style="stop-opacity:0; stop-color:white"/>
  </linearGradient>
    <rect style="fill:url(#id9)" x="49" y="180" width="86.6535" height="103.387"/>
   </mask>
   <mask id="id10">
  <linearGradient id="id11" gradientUnits="userSpaceOnUse" x1="-0.583387" y1="220.222" x2="24.7904" y2="243.952">
   <stop offset="0" style="stop-opacity:1; stop-color:white"/>
   <stop offset="1" style="stop-opacity:0; stop-color:white"/>
  </linearGradient>
    <rect style="fill:url(#id11)" x="1" y="180" width="22.0566" height="103.387"/>
   </mask>
  <linearGradient id="id12" gradientUnits="userSpaceOnUse" x1="172.157" y1="138.263" x2="178.871" y2="138.263">
   <stop offset="0" style="stop-opacity:1; stop-color:#FFC03C"/>
   <stop offset="0.25098" style="stop-opacity:1; stop-color:#FFED00"/>
   <stop offset="0.490196" style="stop-opacity:1; stop-color:#FFCD11"/>
   <stop offset="0.811765" style="stop-opacity:1; stop-color:#FFED00"/>
   <stop offset="1" style="stop-opacity:1; stop-color:#FFBB13"/>
  </linearGradient>
  <linearGradient id="id13" gradientUnits="userSpaceOnUse" xlink:href="#id12" x1="172.157" y1="152.318" x2="178.871" y2="152.318">
  </linearGradient>
  <linearGradient id="id14" gradientUnits="userSpaceOnUse" xlink:href="#id12" x1="2.62737" y1="152.035" x2="15.5811" y2="152.035">
  </linearGradient>
  <linearGradient id="id15" gradientUnits="userSpaceOnUse" xlink:href="#id12" x1="62.6253" y1="152.035" x2="63.0242" y2="152.035">
  </linearGradient>
  <linearGradient id="id16" gradientUnits="userSpaceOnUse" xlink:href="#id12" x1="228.669" y1="152.035" x2="230.475" y2="152.035">
  </linearGradient>
  <linearGradient id="id17" gradientUnits="userSpaceOnUse" xlink:href="#id12" x1="121.817" y1="149.022" x2="122.619" y2="149.022">
  </linearGradient>
 </defs>
 <g id="Слой_x0020_1">
  <metadata id="CorelCorpID_0Corel-Layer"/>
  <path class="fil0" d="M66 154l-6 0c0,0 0,0 0,0 0,0 0,0 0,0 0,0 0,0 0,0 0,0 0,0 0,0 0,1 0,1 0,1 0,0 0,0 0,1 0,0 0,0 0,0 0,0 0,0 0,1 0,0 0,0 0,0 0,0 0,0 0,0 0,0 0,0 0,0l6 0 0 -3zm0 -6l0 0c0,0 0,0 0,0 0,0 0,0 0,-1 0,0 0,0 0,0 -1,0 -1,0 -1,0 0,0 0,0 0,0l-11 0 0 -6 12 0c1,0 2,1 3,1 1,0 1,1 2,1 1,1 1,2 1,2 1,1 1,2 1,4l0 9c0,1 0,1 0,1 0,1 0,1 -1,1 0,1 0,1 0,2 -1,0 -1,0 -2,0 0,1 0,1 -1,1 0,0 0,0 -1,0l-9 0c0,0 -1,0 -1,0 -1,0 -1,0 -1,-1 -1,0 -2,0 -2,-1 -1,0 -1,0 -1,-1 -1,-1 -1,-1 -1,-2 0,0 0,-1 0,-1 0,-1 0,-1 0,-2 0,0 0,-1 0,-1 0,-1 0,-2 1,-2 0,-1 0,-2 1,-2 0,-1 1,-1 1,-1 1,0 1,0 2,0 0,-1 1,-1 1,-1l7 0z"/>
  <path class="fil1" d="M126 147l-4 0c0,0 -1,0 -1,0 0,0 0,0 -1,1 0,0 0,0 0,0 0,0 -1,1 -1,1 0,0 0,1 0,1 0,1 0,1 0,2 0,1 0,1 0,2 0,0 0,1 0,1 0,0 0,0 0,1 1,0 1,0 1,0 0,1 1,1 1,1 0,0 1,0 1,0l3 0c0,0 0,0 1,0 0,0 0,0 0,0l0 -10zm0 -6l0 -6 6 0 0 23c0,0 0,1 0,1 0,1 0,1 0,1 0,1 0,1 -1,1 0,1 0,1 -1,1 0,0 -1,1 -1,1 0,0 -1,0 -1,0l-8 0c0,0 -1,0 -1,0 -1,-1 -2,-1 -2,-1 -1,0 -2,-1 -2,-1 -1,-1 -1,-2 -2,-3 0,0 0,-1 0,-1 0,-1 -1,-2 -1,-2 0,-1 0,-2 0,-3 0,-1 0,-2 0,-2 0,-1 1,-2 1,-3 0,-1 0,-2 1,-2 0,-1 1,-2 2,-2 0,-1 1,-1 2,-1 0,0 1,-1 2,-1 0,0 1,0 1,0l5 0z"/>
  <polygon class="fil2" points="179,141 172,141 172,135 179,135 "/>
  <polygon class="fil3" points="172,163 172,142 179,142 179,163 "/>
  <path class="fil4" d="M225 152c0,1 0,1 0,2 0,0 0,1 0,1 1,0 1,1 1,1 0,0 1,1 1,1 0,0 1,0 1,0 1,0 1,0 2,0 0,0 1,0 1,0 0,0 1,0 1,0 1,0 1,-1 1,-1 0,0 1,-1 1,-1 0,0 0,-1 0,-1 0,-1 0,-1 0,-2 0,0 0,-1 0,-1 0,-1 0,-1 0,-2 0,0 -1,-1 -1,-1 0,0 0,-1 -1,-1 0,0 -1,0 -1,0 0,0 -1,0 -1,0 -1,0 -1,0 -2,0 0,0 -1,0 -1,0 0,0 -1,1 -1,1 0,0 0,0 0,1 -1,0 -1,0 -1,1 0,0 0,1 0,1 0,0 0,1 0,1zm5 -11c0,0 1,0 1,0 1,0 2,0 3,0 0,1 1,1 2,1 1,0 1,1 2,1 1,1 1,2 2,3 0,0 0,1 0,2 1,1 1,1 1,2 0,1 0,1 0,2 0,1 0,2 0,4 -1,1 -1,2 -1,3 -1,0 -1,1 -2,2 -1,0 -1,1 -2,1 -1,0 -2,0 -2,1 -1,0 -2,0 -3,0 0,0 -1,0 -1,0 -1,0 -2,0 -2,0 -1,0 -2,0 -3,0 0,-1 -1,-1 -2,-1 -1,0 -1,-1 -2,-1 -1,-1 -1,-2 -1,-3 -1,0 -1,-1 -1,-2 0,-1 -1,-1 -1,-2 0,-1 0,-1 0,-2 0,-1 0,-1 0,-2 0,-1 1,-1 1,-2 0,-1 0,-2 1,-2 0,-1 0,-2 1,-3 1,0 1,-1 2,-1 1,0 2,0 2,-1 1,0 2,0 3,0 0,0 1,0 2,0z"/>
  <path class="fil5" d="M11 147c-1,1 -1,1 -1,1 0,0 0,1 -1,1 0,1 0,1 0,2l0 12 -6 0 0 -13c0,-1 0,-2 0,-2 0,-1 0,-2 0,-3 1,0 1,-1 2,-2 1,0 1,-1 2,-1 0,0 1,0 2,0 0,0 1,-1 1,-1 1,0 1,0 1,0l5 0 0 6 -3 0c-1,0 -1,0 -1,0 -1,0 -1,0 -1,0z"/>
  <rect class="fil6" x="1" y="112" width="46.1167" height="9.33642"/>
  <path class="fil7" d="M1 96c16,0 31,0 46,0 0,3 0,6 0,10 -15,0 -30,0 -46,0 0,-4 0,-7 0,-10z"/>
  <path class="fil8" d="M1 80c16,0 31,0 46,0 0,3 0,6 0,10 -15,0 -30,0 -46,0 0,-4 0,-7 0,-10z"/>
  <path class="fil9" d="M1 64c16,0 31,0 46,0 0,3 0,6 0,10 -15,0 -30,0 -46,0 0,-4 0,-7 0,-10z"/>
  <path class="fil10" d="M1 48c16,0 31,0 46,0 0,3 0,6 0,9 -15,0 -30,0 -46,0 0,-3 0,-6 0,-9z"/>
  <path class="fil11" d="M1 32c16,0 31,0 46,0 0,3 0,6 0,9 -15,0 -30,0 -46,0 0,-3 0,-6 0,-9z"/>
  <path class="fil12" d="M1 16c16,0 31,0 46,0 0,3 0,6 0,9 -15,0 -30,0 -46,0 0,-3 0,-6 0,-9z"/>
  <rect class="fil13" x="1" width="46.1167" height="9.33642"/>
  <rect class="fil6" x="196" y="112" width="46.1167" height="9.33642"/>
  <path class="fil7" d="M196 96c15,0 31,0 46,0 0,3 0,6 0,10 -15,0 -31,0 -46,0 0,-4 0,-7 0,-10z"/>
  <path class="fil8" d="M196 80c15,0 31,0 46,0 0,3 0,6 0,10 -15,0 -31,0 -46,0 0,-4 0,-7 0,-10z"/>
  <path class="fil9" d="M196 64c15,0 31,0 46,0 0,3 0,6 0,10 -15,0 -31,0 -46,0 0,-4 0,-7 0,-10z"/>
  <path class="fil10" d="M196 48c15,0 31,0 46,0 0,3 0,6 0,9 -15,0 -31,0 -46,0 0,-3 0,-6 0,-9z"/>
  <path class="fil11" d="M196 32c15,0 31,0 46,0 0,3 0,6 0,9 -15,0 -31,0 -46,0 0,-3 0,-6 0,-9z"/>
  <path class="fil12" d="M196 16c15,0 31,0 46,0 0,3 0,6 0,9 -15,0 -31,0 -46,0 0,-3 0,-6 0,-9z"/>
  <rect class="fil13" x="196" width="46.1167" height="9.33642"/>
  <path class="fil10" d="M66 112c16,0 31,0 46,0 0,3 0,7 0,10 -15,0 -30,0 -46,0 0,-3 0,-7 0,-10z"/>
  <path class="fil11" d="M66 96c16,0 31,0 46,0 0,3 0,7 0,10 -15,0 -30,0 -46,0 0,-3 0,-7 0,-10z"/>
  <path class="fil12" d="M66 80c16,0 31,0 46,0 0,3 0,6 0,10 -15,0 -30,0 -46,0 0,-4 0,-7 0,-10z"/>
  <rect class="fil13" x="66" y="64" width="46.1167" height="9.33642"/>
  <path class="fil9" d="M131 112c16,0 31,0 46,0 0,3 0,7 0,10 -15,0 -30,0 -46,0 0,-3 0,-7 0,-10z"/>
  <path class="fil10" d="M131 96c16,0 31,0 46,0 0,3 0,7 0,10 -15,0 -30,0 -46,0 0,-3 0,-7 0,-10z"/>
  <path class="fil11" d="M131 80c16,0 31,0 46,0 0,3 0,7 0,10 -15,0 -30,0 -46,0 0,-3 0,-7 0,-10z"/>
  <polygon class="fil14" points="24,285 24,179 0,179 0,285 "/>
  <path class="fil14" d="M243 285l0 -19 -52 0c-2,0 -3,0 -4,0 -2,-1 -2,-1 -3,-1 0,-1 -1,-1 -1,-2 0,-1 -1,-2 -1,-3l0 -18 59 0 0 -21 -59 0 0 -15c0,-1 0,-2 1,-2 0,-1 0,-2 1,-3 1,-1 2,-1 3,-1 1,-1 2,-1 3,-1l53 0 0 -20 -68 0c-1,0 -3,0 -4,1 -2,0 -3,0 -5,1 -1,0 -2,1 -4,2 -1,2 -2,3 -2,5 -1,2 -1,4 -1,6l0 75c0,2 0,3 0,4 0,2 1,3 1,5 1,1 2,2 3,4 1,1 2,1 3,2 2,0 3,1 4,1 2,0 3,0 5,0l68 0z"/>
  <path class="fil15" style="mask:url(#id0)" d="M241 282l0 -14 -50 0c-2,0 -3,0 -5,0 -1,0 -3,-1 -4,-2 -1,0 -1,-1 -2,-2 0,-1 0,-2 0,-4l0 -21 59 0 0 -15 -59 0 0 -18c0,-1 0,-2 0,-3 0,-2 1,-3 2,-4 2,-1 3,-1 4,-2 1,0 2,0 4,0l50 0 0 -15 -65 0c-1,0 -3,0 -4,0 -1,0 -2,0 -4,1 -1,0 -2,1 -3,2 -1,1 -1,3 -2,4 0,2 -1,4 -1,5l0 75c0,2 0,3 1,4 0,1 0,3 0,4 1,1 2,2 2,3 1,1 2,1 3,2 1,0 2,0 4,0 1,0 2,0 4,0l66 0z"/>
  <path class="fil15" style="mask:url(#id2)" d="M241 282l0 -14 -50 0c-2,0 -3,0 -5,0 -1,0 -3,-1 -4,-2 -1,0 -1,-1 -2,-2 0,-1 0,-2 0,-4l0 -21 59 0 0 -15 -59 0 0 -18c0,-1 0,-2 0,-3 0,-2 1,-3 2,-4 2,-1 3,-1 4,-2 1,0 2,0 4,0l50 0 0 -15 -65 0c-1,0 -3,0 -4,0 -1,0 -2,0 -4,1 -1,0 -2,1 -3,2 -1,1 -1,3 -2,4 0,2 -1,4 -1,5l0 75c0,2 0,3 1,4 0,1 0,3 0,4 1,1 2,2 2,3 1,1 2,1 3,2 1,0 2,0 4,0 1,0 2,0 4,0l66 0z"/>
  <polygon class="fil16" style="mask:url(#id4)" points="24,285 24,179 0,179 0,285 "/>
  <polygon class="fil17" points="22,282 22,182 2,182 2,282 "/>
  <path class="fil14" d="M137 285l0 -19 -34 0c-4,0 -8,-1 -11,-1 -4,-1 -7,-2 -9,-3 -3,-2 -5,-4 -7,-7 -1,-1 -2,-2 -3,-4 -3,-10 -3,-27 1,-37 1,-2 2,-4 3,-5 1,-3 3,-5 5,-6 2,-1 4,-2 6,-3 3,0 5,-1 8,-1 3,0 5,0 8,0l31 0 0 -20 -42 0c-2,0 -4,0 -7,1 -3,0 -6,0 -9,1 -3,1 -7,2 -10,4 -3,2 -6,5 -9,8 -3,3 -5,7 -6,11 -2,5 -3,10 -3,15 -1,5 -1,10 -1,15 0,3 0,6 0,9 1,3 1,7 2,10 0,4 1,7 3,10 1,4 3,7 6,9 2,3 5,5 8,7 3,2 6,3 8,4 3,1 6,1 9,1 3,1 6,1 8,1l45 0z"/>
  <path class="fil15" style="mask:url(#id6)" d="M134 282l0 -14 -31 0c-4,0 -8,0 -12,-1 -3,0 -7,-1 -10,-3 -3,-2 -5,-4 -7,-7 -1,-2 -2,-3 -3,-5 -4,-11 -4,-28 0,-38 1,-3 2,-5 4,-7 1,-2 3,-4 5,-6 3,-1 5,-2 8,-3 2,-1 5,-1 8,-2 3,0 5,0 8,0l29 0 0 -14 -40 0c-2,0 -5,0 -7,0 -3,0 -6,1 -9,2 -3,1 -6,2 -9,3 -3,2 -5,4 -8,7 -3,3 -5,7 -6,11 -1,5 -2,9 -3,14 0,5 0,10 0,15 0,3 0,6 0,9 0,3 1,6 1,10 1,3 2,6 3,9 2,3 3,6 6,9 2,2 4,4 7,6 3,1 5,3 8,3 3,1 6,2 9,2 2,0 5,0 7,0l42 0z"/>
  <path class="fil15" style="mask:url(#id8)" d="M134 282l0 -14 -31 0c-4,0 -8,0 -12,-1 -3,0 -7,-1 -10,-3 -3,-2 -5,-4 -7,-7 -1,-2 -2,-3 -3,-5 -4,-11 -4,-28 0,-38 1,-3 2,-5 4,-7 1,-2 3,-4 5,-6 3,-1 5,-2 8,-3 2,-1 5,-1 8,-2 3,0 5,0 8,0l29 0 0 -14 -40 0c-2,0 -5,0 -7,0 -3,0 -6,1 -9,2 -3,1 -6,2 -9,3 -3,2 -5,4 -8,7 -3,3 -5,7 -6,11 -1,5 -2,9 -3,14 0,5 0,10 0,15 0,3 0,6 0,9 0,3 1,6 1,10 1,3 2,6 3,9 2,3 3,6 6,9 2,2 4,4 7,6 3,1 5,3 8,3 3,1 6,2 9,2 2,0 5,0 7,0l42 0z"/>
  <polygon class="fil15" style="mask:url(#id10)" points="22,282 22,182 2,182 2,282 "/>
 </g>
</svg>
