<svg width="24" height="24" viewBox="0 0 24 24" fill="none" xmlns="http://www.w3.org/2000/svg">
<path d="M17.1135 0H6.88647C3.08318 0 0 3.08318 0 6.88647V17.1135C0 20.9168 3.08318 24 6.88647 24H17.1135C20.9168 24 24 20.9168 24 17.1135V6.88647C24 3.08318 20.9168 0 17.1135 0Z" fill="black"/>
<path fill-rule="evenodd" clip-rule="evenodd" d="M11.7698 16.0314H12.5132C12.6388 16.017 12.7571 15.965 12.8526 15.8822C12.9208 15.7866 12.9567 15.6717 12.9549 15.5543C12.9549 15.5543 12.9401 14.5505 13.4035 14.4029C13.86 14.257 14.4463 15.3729 15.0674 15.8018C15.3007 15.9886 15.5965 16.0793 15.8944 16.0553L17.556 16.032C17.556 16.032 18.425 15.9783 18.0128 15.2906C17.98 15.2345 17.7728 14.7823 16.7775 13.853C15.7357 12.8803 15.8754 13.0378 17.1304 11.3552C17.8944 10.3304 18.2001 9.70503 18.1046 9.43711C18.0135 9.18166 17.4514 9.24921 17.4514 9.24921L15.5806 9.26069C15.4977 9.25095 15.4137 9.26589 15.3392 9.30364C15.2685 9.35614 15.2121 9.42561 15.1753 9.50564C14.9816 10.0111 14.7507 10.5015 14.4843 10.9728C13.6514 12.3957 13.3182 12.4711 13.1821 12.3829C12.8654 12.1769 12.9444 11.5555 12.9444 11.1141C12.9444 9.73683 13.1523 9.16034 12.5397 9.01146C12.254 8.94228 11.9602 8.91293 11.6665 8.92424C10.9988 8.91735 10.4341 8.9262 10.114 9.08394C9.90122 9.18887 9.73726 9.42236 9.83727 9.4358C10.0501 9.45507 10.2475 9.55489 10.3892 9.71486C10.5189 9.97992 10.5823 10.2725 10.5741 10.5675C10.5741 10.5675 10.6843 12.1907 10.317 12.3924C10.0649 12.5304 9.71889 12.2481 8.97647 10.9574C8.72416 10.5082 8.50103 10.0432 8.30848 9.56533C8.27429 9.48424 8.22149 9.41235 8.15435 9.35546C8.06747 9.29753 7.96975 9.25781 7.86709 9.23871L6.0894 9.25052C5.95743 9.25099 5.82925 9.29464 5.72442 9.37481C5.701 9.42443 5.68829 9.47843 5.6871 9.53328C5.68592 9.58814 5.69628 9.64263 5.71753 9.69322C5.71753 9.69322 7.10925 12.9686 8.68494 14.619C9.07478 15.0534 9.54981 15.4029 10.0805 15.6459C10.6112 15.8889 11.1862 16.0201 11.7698 16.0314Z" fill="white"/>
</svg>
