<?xml version="1.0" standalone="no"?>
<!DOCTYPE svg PUBLIC "-//W3C//DTD SVG 20010904//EN"
 "http://www.w3.org/TR/2001/REC-SVG-20010904/DTD/svg10.dtd">
<svg version="1.0" xmlns="http://www.w3.org/2000/svg"
 width="152.000000pt" height="152.000000pt" viewBox="0 0 152.000000 152.000000"
 preserveAspectRatio="xMidYMid meet">
<metadata>
Created by potrace 1.11, written by Peter Selinger 2001-2013
</metadata>
<g transform="translate(0.000000,152.000000) scale(0.100000,-0.100000)"
fill="#000000" stroke="none">
<path d="M80 1075 c0 -28 -7 -26 125 -27 148 0 143 -1 137 27 l-4 25 -129 0
-129 0 0 -25z"/>
<path d="M1190 1073 l0 -28 125 1 c70 1 129 5 132 8 4 4 7 15 8 26 2 19 -5 20
-132 20 l-133 0 0 -27z"/>
<path d="M82 983 l3 -28 127 0 c123 0 127 1 131 22 2 13 2 25 -1 28 -3 3 -63
5 -134 5 l-129 0 3 -27z"/>
<path d="M1190 985 c0 -30 -12 -27 133 -29 118 -1 134 3 133 34 -1 12 -24 15
-133 18 l-133 3 0 -26z"/>
<path d="M80 891 l0 -27 129 0 129 0 4 27 4 27 -133 0 -133 0 0 -27z"/>
<path d="M1190 891 l0 -27 133 1 132 0 0 26 0 26 -132 0 -133 0 0 -26z"/>
<path d="M80 799 l0 -28 129 0 c118 1 130 2 134 19 3 11 0 23 -7 28 -6 6 -66
9 -133 9 l-123 -1 0 -27z"/>
<path d="M1190 798 l0 -28 130 2 c131 2 148 7 134 41 -3 10 -37 13 -134 14
l-130 0 0 -29z"/>
<path d="M84 731 c-2 -2 -4 -15 -4 -28 0 -23 1 -23 129 -23 72 0 132 3 134 8
3 4 1 16 -3 27 -6 18 -16 20 -129 20 -67 0 -124 -2 -127 -4z"/>
<path d="M460 732 c-5 -2 -10 -15 -10 -28 l0 -24 129 0 c132 0 143 3 134 40
-3 13 -25 16 -123 15 -66 0 -124 -1 -130 -3z"/>
<path d="M1201 732 c-6 -2 -11 -15 -11 -28 l0 -24 133 0 132 0 1 25 c1 14 -3
26 -10 26 -29 4 -236 4 -245 1z"/>
<path d="M90 642 c-6 -2 -10 -15 -10 -28 l0 -24 129 0 129 0 4 25 c6 28 18 26
-140 28 -56 1 -107 1 -112 -1z"/>
<path d="M450 617 l0 -28 132 3 c128 3 131 4 133 26 1 12 -1 22 -4 23 -3 0
-63 1 -134 2 l-127 2 0 -28z"/>
<path d="M837 642 c-10 -2 -17 -13 -17 -28 l0 -24 133 0 133 0 0 25 c0 14 -5
25 -10 26 -37 3 -225 3 -239 1z"/>
<path d="M1207 642 c-10 -2 -17 -13 -17 -28 l0 -24 130 0 c72 0 130 3 131 8 0
4 2 15 4 25 2 10 -3 17 -13 18 -55 3 -221 3 -235 1z"/>
<path d="M80 525 c0 -14 6 -25 13 -26 42 -2 239 0 241 2 2 2 7 14 10 27 l7 22
-135 0 -136 0 0 -25z"/>
<path d="M450 525 c0 -22 4 -25 38 -26 99 -2 215 1 220 6 3 3 6 14 7 25 2 19
-5 20 -132 20 l-133 0 0 -25z"/>
<path d="M820 525 c0 -14 6 -25 13 -26 60 -4 237 0 245 5 6 3 10 15 9 26 -1
19 -9 20 -134 20 l-133 0 0 -25z"/>
<path d="M1190 525 c0 -19 5 -25 23 -26 116 -3 229 -1 234 5 4 3 8 15 10 26 3
19 -3 20 -132 20 l-135 0 0 -25z"/>
<path d="M82 433 l3 -26 127 -1 126 -1 5 28 4 27 -134 0 -134 0 3 -27z"/>
<path d="M450 433 l0 -28 130 0 c72 0 131 3 131 8 7 43 10 42 -128 45 l-133 3
0 -28z"/>
<path d="M822 433 l3 -27 128 -1 c70 0 128 3 128 7 7 44 11 43 -129 46 l-133
3 3 -28z"/>
<path d="M1192 433 l3 -27 113 1 c160 1 150 -1 148 28 l-1 25 -133 0 -133 0 3
-27z"/>
</g>
</svg>
