<svg width="24" height="24" viewBox="0 0 24 24" fill="none" xmlns="http://www.w3.org/2000/svg">
<g clip-path="url(#clip0)">
<path d="M17.1135 0H6.88646C3.08317 0 0 3.08318 0 6.88647V17.1135C0 20.9168 3.08317 24 6.88646 24H17.1135C20.9168 24 24 20.9168 24 17.1135V6.88647C24 3.08318 20.9168 0 17.1135 0Z" fill="black"/>
<rect x="4" y="4" width="16" height="16" fill="white"/>
<path d="M19.8674 22.5H4.12491C3.7775 22.5115 3.43148 22.4508 3.10874 22.3217C2.786 22.1926 2.49356 21.9979 2.24991 21.75C2.00388 21.5081 1.81031 21.2181 1.68128 20.8981C1.55224 20.5781 1.4905 20.2349 1.49991 19.89V4.12503C1.48842 3.77762 1.54914 3.4316 1.67824 3.10886C1.80733 2.78612 2.00199 2.49368 2.24991 2.25003C2.49356 2.00212 2.786 1.80746 3.10874 1.67836C3.43148 1.54926 3.7775 1.48854 4.12491 1.50003H19.8749C20.2223 1.48854 20.5683 1.54926 20.8911 1.67836C21.2138 1.80746 21.5063 2.00212 21.7499 2.25003C21.9978 2.49368 22.1925 2.78612 22.3216 3.10886C22.4507 3.4316 22.5114 3.77762 22.4999 4.12503V19.875C22.496 20.5713 22.2171 21.2378 21.724 21.7295C21.231 22.2211 20.5637 22.4981 19.8674 22.5ZM18.5549 7.92003C18.5589 7.57582 18.4942 7.23426 18.3645 6.91538C18.2349 6.59649 18.0429 6.30668 17.7998 6.06292C17.5568 5.81916 17.2675 5.62635 16.949 5.49578C16.6305 5.36521 16.2891 5.29951 15.9449 5.30253H8.03241C7.68875 5.30153 7.34829 5.36861 7.03069 5.49989C6.71309 5.63118 6.42464 5.82406 6.18198 6.06742C5.93932 6.31077 5.74727 6.59978 5.6169 6.91775C5.48653 7.23573 5.42043 7.57637 5.42241 7.92003V15.825C5.4184 16.1692 5.48312 16.5108 5.61278 16.8297C5.74243 17.1486 5.93441 17.4384 6.17747 17.6821C6.42053 17.9259 6.70979 18.1187 7.02831 18.2493C7.34682 18.3798 7.68819 18.4455 8.03241 18.4425H15.9449C16.2897 18.4476 16.632 18.3833 16.9514 18.2535C17.2709 18.1236 17.561 17.9309 17.8044 17.6867C18.0479 17.4426 18.2398 17.1519 18.3687 16.8321C18.4977 16.5123 18.561 16.1698 18.5549 15.825V7.92003ZM12.0074 8.59503C11.6546 8.59507 11.3045 8.65596 10.9724 8.77503C10.6432 8.89147 10.3306 9.05031 10.0424 9.24753H6.74991V8.59503C6.74378 8.33594 6.79017 8.0783 6.88628 7.83762C6.98239 7.59694 7.12623 7.37821 7.30913 7.19461C7.49204 7.011 7.71022 6.86633 7.95053 6.7693C8.19083 6.67227 8.4483 6.6249 8.70741 6.63003H15.2699C15.5317 6.62502 15.7919 6.67217 16.0352 6.76875C16.2786 6.86532 16.5003 7.00938 16.6874 7.19253C16.8741 7.37393 17.0206 7.59249 17.1175 7.83408C17.2144 8.07567 17.2595 8.33491 17.2499 8.59503V9.24753H13.9499C13.6635 9.05632 13.3566 8.89782 13.0349 8.77503C12.7037 8.65258 12.353 8.59158 11.9999 8.59503H12.0074ZM15.2699 17.1525H8.70741C8.44688 17.1582 8.18807 17.109 7.94775 17.0082C7.70744 16.9075 7.49098 16.7573 7.31241 16.5675C7.13084 16.3855 6.98754 16.1689 6.89094 15.9306C6.79433 15.6923 6.74638 15.4371 6.74991 15.18V9.93003H9.36741C9.17168 10.2164 9.01292 10.5264 8.89491 10.8525C8.76723 11.1877 8.70363 11.5439 8.70741 11.9025C8.71648 12.3383 8.81609 12.7674 8.99991 13.1625C9.17223 13.5467 9.40803 13.8992 9.69741 14.205C9.99651 14.51 10.3535 14.7523 10.7474 14.9175C11.1544 15.0941 11.5938 15.1835 12.0374 15.18C12.4681 15.1804 12.8945 15.0943 13.2913 14.9268C13.6881 14.7593 14.0472 14.5139 14.3474 14.205C14.6208 13.8958 14.8413 13.5436 14.9999 13.1625C15.1744 12.7628 15.2638 12.3312 15.2624 11.895C15.2662 11.5364 15.2026 11.1802 15.0749 10.845C14.9585 10.5223 14.8076 10.213 14.6249 9.92253H17.2499V15.1725C17.2527 15.4315 17.2022 15.6884 17.1016 15.9271C17.0009 16.1657 16.8523 16.3812 16.6649 16.56C16.4845 16.7479 16.2679 16.8973 16.0281 16.9991C15.7883 17.101 15.5304 17.1532 15.2699 17.1525ZM11.9999 9.92253C12.2571 9.91815 12.5126 9.96571 12.751 10.0624C12.9894 10.159 13.2059 10.3028 13.3874 10.485C13.5729 10.6685 13.7202 10.8869 13.8207 11.1276C13.9212 11.3684 13.9729 11.6267 13.9729 11.8875C13.9729 12.1484 13.9212 12.4067 13.8207 12.6474C13.7202 12.8882 13.5729 13.1066 13.3874 13.29C13.2059 13.4723 12.9894 13.616 12.751 13.7127C12.5126 13.8093 12.2571 13.8569 11.9999 13.8525C11.7369 13.8585 11.4753 13.8119 11.2306 13.7153C10.9858 13.6187 10.7629 13.4741 10.5749 13.29C10.2058 12.9166 9.99872 12.4126 9.99872 11.8875C9.99872 11.3624 10.2058 10.8585 10.5749 10.485C10.7629 10.301 10.9858 10.1564 11.2306 10.0598C11.4753 9.96318 11.7369 9.91651 11.9999 9.92253ZM14.6249 8.59503H15.9374V7.28253H14.6324L14.6249 8.59503Z" fill="black"/>
</g>
<defs>
<clipPath id="clip0">
<rect width="24" height="24" fill="white"/>
</clipPath>
</defs>
</svg>
